# xmcd
#
# Track frame offsets:
#	150
#	22729
#	43987
#	78862
#	107929
#	136731
#	164102
#	175309
#	198957
#	230548
#	256880
#	279034
#	306387
#	331942
#
# Disc length: 4618
#
# Revision: 2
# Processed by: cddbd v1.5.1PL0 Copyright (c) Steve Scherf et al.
# Submitted via: dBpowerAMP V4.0
# Normalized: r0:TSWAP
#
DISCID=b912080e
DTITLE=Various Artist - Blues Collection 2000
DYEAR=1900
DGENRE=Blues
TTITLE0=Muddy Waters - Who do you trust
TTITLE1=Koko Tayler - Mother Nature
TTITLE2=Peter Green - Fool no more
TTITLE3=Luther Allison - Meet me
TTITLE4=James Cotton - Down Home Blues
TTITLE5=Eric Clapton - Groanin' the Blues
TTITLE6=John Lee Hooker - Boom Boom
TTITLE7=BB King - Playin' with my Friends
TTITLE8=Big Daddy Kinsey - It's over
TTITLE9=Junior Wells - Pretty Woman
TTITLE10=Larry Garner - Another bad Day
TTITLE11=Sugar Blue - I just got to know
TTITLE12=Lucky Peterson - Bad Condition
TTITLE13=Buddy Guy - My Time after a while
EXTD=
EXTT0=
EXTT1=
EXTT2=
EXTT3=
EXTT4=
EXTT5=
EXTT6=
EXTT7=
EXTT8=
EXTT9=
EXTT10=
EXTT11=
EXTT12=
EXTT13=
PLAYORDER=
